<svg xmlns="http://www.w3.org/2000/svg" width="600" height="427.537" viewBox="0 0 600 427.537"><path d="M0 303.305v124.232h184.913C194.95 399.83 216.34 299.663 0 303.305zM416.25 73.16h36.772V61.38H416.25v11.78zm0 29.295h36.772V90.132H416.25v12.322zm-90.985 125.084c-5.541 0-9.223 4.456-9.223 9.726v.117c0 5.23 3.798 9.803 9.3 9.803 5.58 0 9.261-4.456 9.261-9.726v-.077c0-5.27-3.797-9.843-9.338-9.843zM0 .038v146.126c5.115-3.914 11.625-6.2 18.91-6.2 11.857 0 19.49 4.96 24.606 12.09l-12.09 9.339c-3.294-4.147-7.13-6.782-12.671-6.782-8.099 0-13.834 6.859-13.834 15.306v.194c0 8.68 5.735 15.5 13.834 15.5 6.045 0 9.61-2.829 13.097-7.052l12.09 8.602c-5.464 7.556-12.826 13.097-25.69 13.097-6.86 0-13.215-2.208-18.252-6.006v98.076c23.87-8.913 155.58-45.26 453.022 94.006V255.593h-19.917l.039-36.425h10.075v27.59h9.803V120.783h-58.085V43.09h58.085V.039H0zm338.323 17.283l19.647 6.355-16.314 14.183h-14.88l11.547-20.538zM305.696 43.09h62.465v18.29h-41.152v11.78h37.277v16.972h-37.277v12.322h41.733v18.329h-63.046V43.09zm36.774 143.335c3.875 0 6.858-.814 9.261-2.403v-7.052H340.3v-11.741h26.698v26.078c-6.16 5.038-14.686 8.951-25.187 8.951-18.057 0-31.581-12.438-31.581-29.992v-.155c0-16.895 13.252-30.147 31.232-30.147 10.191 0 17.399 3.139 23.521 8.447l-9.416 11.354c-4.146-3.487-8.292-5.503-14.027-5.503-8.37 0-14.803 7.053-14.803 15.927v.155c0 9.377 6.55 16.08 15.733 16.08zm-49.135-22.862v12.67h-27.822v9.184h31.116v13.679h-47.042v-57.97h46.654v13.64h-30.728v8.797h27.822zm-22.94-26.35l-12.167-10.618 14.647-4.688 8.603 15.306h-11.083zm-63.588-55.296c0-22.63 17.437-40.377 40.959-40.377 15.848 0 26.078 6.665 32.976 16.197l-16.237 12.555c-4.417-5.58-9.532-9.106-16.972-9.106-10.889 0-18.522 9.183-18.522 20.537v.194c0 11.664 7.633 20.77 18.522 20.77 8.099 0 12.865-3.798 17.553-9.455l16.198 11.547c-7.324 10.114-17.205 17.554-34.41 17.554-22.203 0-40.067-16.973-40.067-40.184v-.232zm28.52 103.113v14.066H191.19v-57.97h16.042v43.904h28.094zm-96.68-141.94l16.003 28.287L170.73 43.09h24.102l-29.527 48.282v29.41h-21.66v-29.1L114.117 43.09h24.528zm-86.567 0h21.544v58.822h37.626v18.87H52.08V43.09zM21.816 255.515H11.702v-36.424h10.153l-.039 36.424zm41.307.04h-8.835L38.75 235.558v19.995h-9.998V219.13h9.416l14.996 19.22v-19.22h9.998l-.039 36.425zm-8.563-85.289v-.155c0-16.662 13.407-30.147 31.31-30.147s31.154 13.33 31.154 29.953v.194c0 16.624-13.407 30.147-31.31 30.147s-31.154-13.33-31.154-29.992zm45.22 57.698H88.853l-.039 27.59H78.74v-27.59H67.812v-8.835H99.78v8.835zm34.216 27.59H104.43V219.13h29.295v8.564h-19.297v5.541h17.476v7.944h-17.476v5.774h19.568v8.602zm27.241 0l-7.323-11.044h-4.418v11.044h-10.113V219.13h17.243c5.541 0 9.416 1.473 11.858 3.953 2.13 2.092 3.216 4.882 3.216 8.486v.116c0 5.541-2.984 9.262-7.479 11.16l8.68 12.71h-11.664zm15.694-56.458h-44.175v-57.97h16.081v43.904h28.094v14.066zm34.526 56.458h-8.874l-15.538-19.995v19.995h-9.998V219.13h9.416l14.997 19.26v-19.26h9.997v36.425zm33.674 0l-2.635-6.51h-14.067l-2.596 6.51h-10.617l15.538-36.657h9.727l15.5 36.657h-10.85zm39.873-27.55h-10.928v27.55h-10.113v-27.55l-10.928-.04v-8.835h31.969v8.874zM300 255.553h-10.114V219.13h10.153L300 255.554zm44.911-18.173c0 10.462-8.409 18.91-19.685 18.91-11.237 0-19.53-8.37-19.53-18.833v-.116c0-10.424 8.409-18.91 19.646-18.91 11.238 0 19.569 8.37 19.569 18.832v.117zm39.912 18.212h-8.873l-15.54-19.995v19.995h-9.997v-36.425h9.417l14.996 19.259v-19.259h9.997v36.425zm33.674 0l-2.635-6.51h-14.066l-2.597 6.51h-10.617l15.538-36.696h9.727l15.5 36.696h-10.85zm11.47-114.467v13.64h-30.73v8.797h27.823v12.67h-27.822v9.184h31.116v13.679h-47.042v-57.97h46.655zm-198.554 100.09h8.176l-4.069-10.384-4.107 10.385zm-130.78-70.95v-.155c0-8.37-6.045-15.655-14.919-15.655-8.796 0-14.686 7.13-14.686 15.461v.194c0 8.37 6.045 15.655 14.841 15.655 8.874 0 14.764-7.13 14.764-15.5zm304.146 70.95h8.176l-4.068-10.345-4.108 10.346zm-248.695-13.33h-6.588v8.72h6.665c3.41 0 5.386-1.667 5.386-4.302v-.116c0-2.867-2.053-4.301-5.463-4.301zm79.63 199.65h217.308v-12.631c-31-12.246-274.928-105.36-217.308 12.632z" fill="#20afe8"/><path d="M505.683 376.298h-14.066v28.908h-10.385v-31.969h-14.84v48.902h61.146v-16.933h-21.855v-28.908zm7.44-39.486h-9.726V307.48h-13.33v29.333h-9.26v-32.394H466.39v49.173h61.147v-49.6h-14.415v32.821zm-25.69-107.685h-.156c-6.045 0-10.772 1.821-14.26 5.425-4.185 4.107-6.626 10.579-6.626 19.917v28.907h61.147v-16.933h-18.522v-7.44l18.522-12.323v-19.568l-21.312 14.609c-3.255-7.595-9.455-12.594-18.794-12.594zm8.292 37.316h-14.648v-11.121c0-5.658 2.441-9.145 7.247-9.145h.155c4.456 0 7.246 3.293 7.246 9.067v11.199zM466.39 167.67h32.317l-32.317 25.148v15.81h61.147V191.85h-33.557l33.557-26.118v-14.84h-61.147v16.778zm46.732-56.342h-9.726V81.994h-13.33v29.334h-9.26V78.933H466.39v49.173h61.147v-49.6h-14.415v32.822zM466.391 0v18.949l22.281 12.632-22.28 12.594v19.297l38.245-23.25h22.901V23.211h-23.172L466.39 0zm71.26 380.29l38.673 13.91-38.672 13.873v18.949l61.573-24.8v-15.733l-61.573-24.8v18.6zm30.536-15.113h.193c17.554 0 31.62-13.95 31.62-32.82 0-18.872-14.26-33.016-31.813-33.016h-.156c-17.553 0-31.62 13.989-31.62 32.86 0 18.833 14.222 32.976 31.776 32.976zm0-48.553h.193c8.835 0 16.314 6.2 16.314 15.577 0 9.222-7.673 15.616-16.507 15.616h-.156c-8.834 0-16.352-6.2-16.352-15.46 0-9.34 7.711-15.733 16.508-15.733zm-30.535-39.641v16.933h61.108v-46.538H583.92v29.605h-46.267zm61.108-56.575h-46.267V202.08h-14.841v53.59h14.841v-18.328h46.267v-16.934zm0-27.435l-10.927-4.378v-23.56l10.927-4.456v-18.174l-61.573 26.04v16.313l61.573 26.04v-17.825zm-24.102-9.338l-17.36-6.898 17.36-6.82v13.718zm24.102-61.147h-61.108v17.05h61.108v-17.05zm0-24.684h-18.522v-7.44l18.522-12.322V58.473l-21.312 14.609c-3.216-7.595-9.417-12.594-18.755-12.594h-.194c-6.006 0-10.733 1.86-14.22 5.425-4.186 4.108-6.627 10.579-6.627 19.918v28.907h61.108V97.804zm-31.775 0H552.3V86.683c0-5.658 2.441-9.145 7.246-9.145h.194c4.456 0 7.246 3.294 7.246 9.067v11.2zm31.775-92.07h-14.415v32.86h-9.687V9.223h-13.369v29.373h-9.26V6.16h-14.377v49.174h61.108v-49.6z" fill="#7a7a7a"/></svg>